<svg width="80" height="100" viewBox="0 0 80 100" fill="none" xmlns="http://www.w3.org/2000/svg">
<path d="M42.4 76.05H60.95C61.6528 76.05 62.3269 75.7418 62.8238 75.1933C63.3208 74.6447 63.6 73.9008 63.6 73.125V64.35H42.4V76.05ZM43.0413 81.9L50.6733 90.324C51.5372 91.2776 52.1626 92.4008 52.5495 93.6H71.55C73.6585 93.6 75.6806 92.6755 77.1715 91.0299C78.6624 89.3842 79.5 87.1523 79.5 84.825V35.1H55.65C53.5415 35.1 51.5194 34.1755 50.0285 32.5299C48.5376 30.8842 47.7 28.6523 47.7 26.325V0H23.85C21.7415 0 19.7194 0.924507 18.2285 2.57014C16.7376 4.21577 15.9 6.44773 15.9 8.775V41.108C20.3297 40.5541 24.8111 41.3873 28.832 43.5123C29.5695 42.698 30.4454 42.0526 31.4095 41.6129C32.3736 41.1731 33.4069 40.9479 34.45 40.95H60.95C63.0585 40.95 65.0806 41.8745 66.5715 43.5201C68.0624 45.1658 68.9 47.3977 68.9 49.725V73.125C68.9 75.4523 68.0624 77.6842 66.5715 79.3299C65.0806 80.9755 63.0585 81.9 60.95 81.9H43.0413ZM63.6 58.5V49.725C63.6 48.9492 63.3208 48.2053 62.8238 47.6567C62.3269 47.1082 61.6528 46.8 60.95 46.8H42.4V58.5H63.6ZM53 1.4625V26.325C53 27.1008 53.2792 27.8447 53.7762 28.3933C54.2731 28.9418 54.9472 29.25 55.65 29.25H78.175L53 1.4625ZM33.4059 79.5366C36.2144 75.391 37.4961 70.225 36.9929 65.0783C36.4898 59.9317 34.2391 55.1864 30.694 51.7975C27.1488 48.4086 22.5723 46.6277 17.8855 46.8132C13.1986 46.9986 8.7494 49.1366 5.43318 52.797C2.11696 56.4574 0.179925 61.3683 0.0119175 66.5415C-0.15609 71.7147 1.4574 76.7662 4.52766 80.6792C7.59792 84.5923 11.8971 87.0765 16.5598 87.6318C21.2226 88.1872 25.9029 86.7726 29.6588 83.6726L43.1738 98.5901C43.4198 98.862 43.712 99.0778 44.0336 99.2251C44.3552 99.3725 44.6999 99.4484 45.0481 99.4487C45.3963 99.449 45.7411 99.3735 46.0629 99.2267C46.3847 99.0799 46.6772 98.8646 46.9235 98.593C47.1699 98.3214 47.3654 97.9989 47.4989 97.644C47.6324 97.289 47.7012 96.9085 47.7015 96.5241C47.7017 96.1398 47.6334 95.7592 47.5004 95.404C47.3673 95.0488 47.1722 94.7261 46.9262 94.4541L33.4112 79.5366H33.4059ZM31.8 67.275C31.8 71.1538 30.404 74.8737 27.9192 77.6164C25.4343 80.3592 22.0641 81.9 18.55 81.9C15.0359 81.9 11.6657 80.3592 9.18083 77.6164C6.69598 74.8737 5.3 71.1538 5.3 67.275C5.3 63.3962 6.69598 59.6763 9.18083 56.9336C11.6657 54.1908 15.0359 52.65 18.55 52.65C22.0641 52.65 25.4343 54.1908 27.9192 56.9336C30.404 59.6763 31.8 63.3962 31.8 67.275V67.275Z" fill="#553A31"/>
</svg>
