<svg width="92" height="106" viewBox="0 0 92 106" fill="none" xmlns="http://www.w3.org/2000/svg">
<path d="M0 99.375H92V106H0V99.375Z" fill="#D0D0D0"/>
<path d="M2.875 53H89.125V99.375H2.875V53Z" fill="#6D4C41"/>
<path d="M8.625 69.5625H28.75V99.375H8.625V69.5625Z" fill="white"/>
<path d="M2.875 44.7188H89.125V54.6562H2.875V44.7188Z" fill="#281A0C"/>
<path d="M0 44.7188C0 48.3625 2.5875 51.3438 5.75 51.3438C8.9125 51.3438 11.5 48.3625 11.5 44.7188H0Z" fill="#553A31"/>
<path d="M11.5 44.7188C11.5 48.3625 14.0875 51.3438 17.25 51.3438C20.4125 51.3438 23 48.3625 23 44.7188H11.5Z" fill="#FCC9A7"/>
<path d="M23 44.7188C23 48.3625 25.5875 51.3438 28.75 51.3438C31.9125 51.3438 34.5 48.3625 34.5 44.7188H23Z" fill="#553A31"/>
<path d="M23 29.8125H34.5V44.7188H23V29.8125Z" fill="#6D4C41"/>
<path d="M34.5 44.7188C34.5 48.3625 37.0875 51.3438 40.25 51.3438C43.4125 51.3438 46 48.3625 46 44.7188H34.5Z" fill="#FCC9A7"/>
<path d="M34.5 29.8125H46V44.7188H34.5V29.8125Z" fill="#F4DAC8"/>
<path d="M0 29.8125H11.5V44.7188H0V29.8125Z" fill="#6D4C41"/>
<path d="M11.5 29.8125H23V44.7188H11.5V29.8125Z" fill="#F4DAC8"/>
<path d="M69 29.8125H80.5V44.7188H69V29.8125Z" fill="#6D4C41"/>
<path d="M80.5 29.8125H92V44.7188H80.5V29.8125Z" fill="#F4DAC8"/>
<path d="M46 44.7188C46 48.3625 48.5875 51.3438 51.75 51.3438C54.9125 51.3438 57.5 48.3625 57.5 44.7188H46Z" fill="#553A31"/>
<path d="M46 29.8125H57.5V44.7188H46V29.8125Z" fill="#6D4C41"/>
<path d="M57.5 44.7188C57.5 48.3625 60.0875 51.3438 63.25 51.3438C66.4125 51.3438 69 48.3625 69 44.7188H57.5Z" fill="#FCC9A7"/>
<path d="M57.5 29.8125H69V44.7188H57.5V29.8125Z" fill="#F4DAC8"/>
<path d="M69 44.7188C69 48.3625 71.5875 51.3438 74.75 51.3438C77.9125 51.3438 80.5 48.3625 80.5 44.7188H69Z" fill="#553A31"/>
<path d="M80.5 44.7188C80.5 48.3625 83.0875 51.3438 86.25 51.3438C89.4125 51.3438 92 48.3625 92 44.7188H80.5Z" fill="#FCC9A7"/>
<path d="M18.6875 54.6562C11.5 54.6562 5.75 61.2812 5.75 69.5625H31.625C31.625 61.2812 25.875 54.6562 18.6875 54.6562Z" fill="white"/>
<path d="M9.05664 66.25H28.3191C27.0254 61.4469 23.2879 57.9688 18.6879 57.9688C14.0879 57.9688 10.3504 61.4469 9.05664 66.25Z" fill="#6D4C41"/>
<path d="M8.625 69.5625H11.5V99.375H8.625V69.5625Z" fill="white"/>
<path d="M25.875 69.5625H28.75V99.375H25.875V69.5625Z" fill="white"/>
<path d="M11.5 69.5625H25.875V72.875H11.5V69.5625Z" fill="white"/>
<path d="M38.8125 54.6562H81.9375V87.7812H38.8125V54.6562Z" fill="white"/>
<path d="M84.8125 92.75C84.8125 93.5781 84.0938 94.4062 83.375 94.4062H37.375C36.6562 94.4062 35.9375 93.5781 35.9375 92.75V89.4375C35.9375 88.6094 36.6562 87.7812 37.375 87.7812H83.375C84.0938 87.7812 84.8125 88.6094 84.8125 89.4375V92.75Z" fill="#281A0C"/>
<path d="M41.6875 57.9688H79.0625V84.4688H41.6875V57.9688Z" fill="#F2FEFF"/>
<path d="M41.6875 57.9688H79.0625V61.2812H41.6875V57.9688Z" fill="#D2C5C0"/>
<path d="M23 77.8438C22.1375 77.8438 21.5625 78.8375 21.5625 79.9969V83.3094C21.5625 84.4688 22.1375 86.125 22.7125 86.7875L23.2875 87.45C23.8625 88.1125 24.4375 87.7813 24.4375 86.6219V80.1625C24.4375 78.8375 23.7188 77.8438 23 77.8438Z" fill="#62727A"/>
<path d="M92 29.8125H0V3.3125C0 1.49062 1.29375 0 2.875 0H89.125C90.7063 0 92 1.49062 92 3.3125V29.8125Z" fill="#281A0C"/>
<path d="M4.3125 3.3125C3.59375 3.3125 2.875 4.14062 2.875 4.96875V24.8438C2.875 25.8375 3.59375 26.5 4.3125 26.5H87.6875C88.4062 26.5 89.125 25.8375 89.125 24.8438V4.96875C89.125 4.14062 88.4062 3.3125 87.6875 3.3125H4.3125Z" fill="#E8E8E8"/>
<path d="M25.1567 8.44687C21.8504 6.79062 18.1129 5.96249 14.5192 7.12187C11.0692 8.28124 10.6379 13.0844 13.5129 15.4031C16.2442 17.3906 19.6942 15.7344 22.5692 17.3906C23.7192 18.0531 22.8567 19.2125 22.1379 19.5437C21.1317 19.875 20.2692 19.875 19.4067 19.875C17.5379 19.875 15.2379 19.5437 13.6567 18.3844C12.0754 17.225 10.6379 20.0406 12.2192 21.2C14.9504 23.1875 19.2629 23.5187 22.2817 22.6906C25.4442 21.8625 27.1692 17.5562 24.4379 14.9062C22.1379 12.5875 18.5442 13.5812 15.6692 12.7531C14.8067 12.5875 13.6567 11.7594 14.5192 10.6C15.3817 9.77187 17.2504 9.93749 18.1129 9.93749C19.9817 9.93749 22.2817 10.6 23.7192 11.4281C25.4442 12.2562 26.8817 9.27499 25.1567 8.44687" fill="#6D4C41"/>
<path d="M71.875 21.5319V8.28194L70.4375 9.93819C71.5875 9.93819 79.2062 9.60694 77.4812 12.2569C76.3312 13.9132 72.1625 13.2507 70.4375 13.2507C68.5688 13.2507 68.5688 16.5632 70.4375 16.5632C73.6 16.5632 80.0687 17.2257 80.5 12.0913C80.9312 5.79757 74.0312 6.6257 70.4375 6.6257C69.7187 6.6257 69 7.45382 69 8.28194V21.5319C69 23.6851 71.875 23.6851 71.875 21.5319Z" fill="#6D4C41"/>
<path d="M31.625 8.2804V21.5304C31.625 23.6835 34.5 23.6835 34.5 21.5304V8.2804C34.5 6.12728 31.625 6.12728 31.625 8.2804Z" fill="#6D4C41"/>
<path d="M43.125 8.2804V21.5304C43.125 23.6835 46 23.6835 46 21.5304V8.2804C46 6.12728 43.125 6.12728 43.125 8.2804Z" fill="#6D4C41"/>
<path d="M33.0627 16.5625H44.5627C46.4314 16.5625 46.4314 13.25 44.5627 13.25H33.0627C31.1939 13.25 31.1939 16.5625 33.0627 16.5625Z" fill="#6D4C41"/>
<path d="M57.5 21.5312C60.6756 21.5312 63.25 18.5651 63.25 14.9062C63.25 11.2474 60.6756 8.28125 57.5 8.28125C54.3244 8.28125 51.75 11.2474 51.75 14.9062C51.75 18.5651 54.3244 21.5312 57.5 21.5312Z" stroke="#6D4C41" stroke-width="3" stroke-miterlimit="10"/>
<path d="M7.1875 16.5625C7.98141 16.5625 8.625 15.821 8.625 14.9062C8.625 13.9915 7.98141 13.25 7.1875 13.25C6.39359 13.25 5.75 13.9915 5.75 14.9062C5.75 15.821 6.39359 16.5625 7.1875 16.5625Z" fill="#281A0C"/>
<path d="M84.8125 16.5625C85.6064 16.5625 86.25 15.821 86.25 14.9062C86.25 13.9915 85.6064 13.25 84.8125 13.25C84.0186 13.25 83.375 13.9915 83.375 14.9062C83.375 15.821 84.0186 16.5625 84.8125 16.5625Z" fill="#281A0C"/>
</svg>
